M48
; DRILL file {KiCad (5.1.5-0-10_14)} date Friday, 21 August 2020 at 16:03:55
; FORMAT={-:-/ absolute / inch / decimal}
; #@! TF.CreationDate,2020-08-21T16:03:55+01:00
; #@! TF.GenerationSoftware,Kicad,Pcbnew,(5.1.5-0-10_14)
; #@! TF.FileFunction,Plated,1,2,PTH
FMAT,2
INCH
T1C0.0315
%
G90
G05
T1
X3.1496Y-1.4961
X3.1496Y-1.5961
X3.1496Y-1.6961
X3.1496Y-1.7961
X3.1496Y-1.8961
X3.1496Y-1.9961
X3.1496Y-2.0961
X3.1496Y-2.1961
X3.1496Y-2.2961
X3.1496Y-2.3961
X3.1496Y-2.4961
X3.1496Y-2.5961
X3.1496Y-2.6961
X3.1496Y-2.7961
X3.1496Y-2.8961
X3.1496Y-2.9961
X3.1496Y-3.0961
X3.1496Y-3.1961
X3.1496Y-3.2961
X3.1496Y-3.3961
X3.1496Y-3.4961
X3.1496Y-3.5961
X3.1496Y-3.6961
X3.1496Y-3.7961
X3.7496Y-1.4961
X3.7496Y-1.5961
X3.7496Y-1.6961
X3.7496Y-1.7961
X3.7496Y-1.8961
X3.7496Y-1.9961
X3.7496Y-2.0961
X3.7496Y-2.1961
X3.7496Y-2.2961
X3.7496Y-2.3961
X3.7496Y-2.4961
X3.7496Y-2.5961
X3.7496Y-2.6961
X3.7496Y-2.7961
X3.7496Y-2.8961
X3.7496Y-2.9961
X3.7496Y-3.0961
X3.7496Y-3.1961
X3.7496Y-3.2961
X3.7496Y-3.3961
X3.7496Y-3.4961
X3.7496Y-3.5961
X3.7496Y-3.6961
X3.7496Y-3.7961
X4.0825Y-2.515
X4.0825Y-2.615
X4.0825Y-2.715
X4.0825Y-2.815
X4.0825Y-2.915
X4.0825Y-3.015
X4.0825Y-3.115
X4.0825Y-3.215
X4.0825Y-3.315
X4.0825Y-3.415
X4.3825Y-2.515
X4.3825Y-2.615
X4.3825Y-2.715
X4.3825Y-2.815
X4.3825Y-2.915
X4.3825Y-3.015
X4.3825Y-3.115
X4.3825Y-3.215
X4.3825Y-3.315
X4.3825Y-3.415
X4.1806Y-2.2925
X4.3775Y-2.2925
X2.0866Y-1.4961
X2.0866Y-1.5961
X2.0866Y-1.6961
X2.0866Y-1.7961
X2.0866Y-1.8961
X2.0866Y-1.9961
X2.0866Y-2.0961
X2.0866Y-2.1961
X2.0866Y-2.2961
X2.0866Y-2.3961
X2.0866Y-2.4961
X2.0866Y-2.5961
X2.0866Y-2.6961
X2.0866Y-2.7961
X2.0866Y-2.8961
X2.0866Y-2.9961
X2.0866Y-3.0961
X2.0866Y-3.1961
X2.0866Y-3.2961
X2.0866Y-3.3961
X2.0866Y-3.4961
X2.0866Y-3.5961
X2.0866Y-3.6961
X2.0866Y-3.7961
X2.6866Y-1.4961
X2.6866Y-1.5961
X2.6866Y-1.6961
X2.6866Y-1.7961
X2.6866Y-1.8961
X2.6866Y-1.9961
X2.6866Y-2.0961
X2.6866Y-2.1961
X2.6866Y-2.2961
X2.6866Y-2.3961
X2.6866Y-2.4961
X2.6866Y-2.5961
X2.6866Y-2.6961
X2.6866Y-2.7961
X2.6866Y-2.8961
X2.6866Y-2.9961
X2.6866Y-3.0961
X2.6866Y-3.1961
X2.6866Y-3.2961
X2.6866Y-3.3961
X2.6866Y-3.4961
X2.6866Y-3.5961
X2.6866Y-3.6961
X2.6866Y-3.7961
X3.5506Y-1.245
X3.7475Y-1.245
T0
M30
