G04 #@! TF.GenerationSoftware,KiCad,Pcbnew,(5.1.5-0-10_14)*
G04 #@! TF.CreationDate,2020-08-21T16:03:34+01:00*
G04 #@! TF.ProjectId,BusterTower,42757374-6572-4546-9f77-65722e6b6963,rev?*
G04 #@! TF.SameCoordinates,Original*
G04 #@! TF.FileFunction,Copper,L2,Bot*
G04 #@! TF.FilePolarity,Positive*
%FSLAX46Y46*%
G04 Gerber Fmt 4.6, Leading zero omitted, Abs format (unit mm)*
G04 Created by KiCad (PCBNEW (5.1.5-0-10_14)) date 2020-08-21 16:03:34*
%MOMM*%
%LPD*%
G04 APERTURE LIST*
%ADD10O,1.600000X1.600000*%
%ADD11R,1.600000X1.600000*%
%ADD12C,1.600000*%
%ADD13C,1.000000*%
G04 APERTURE END LIST*
D10*
X95240000Y-38000000D03*
X80000000Y-96420000D03*
X95240000Y-40540000D03*
X80000000Y-93880000D03*
X95240000Y-43080000D03*
X80000000Y-91340000D03*
X95240000Y-45620000D03*
X80000000Y-88800000D03*
X95240000Y-48160000D03*
X80000000Y-86260000D03*
X95240000Y-50700000D03*
X80000000Y-83720000D03*
X95240000Y-53240000D03*
X80000000Y-81180000D03*
X95240000Y-55780000D03*
X80000000Y-78640000D03*
X95240000Y-58320000D03*
X80000000Y-76100000D03*
X95240000Y-60860000D03*
X80000000Y-73560000D03*
X95240000Y-63400000D03*
X80000000Y-71020000D03*
X95240000Y-65940000D03*
X80000000Y-68480000D03*
X95240000Y-68480000D03*
X80000000Y-65940000D03*
X95240000Y-71020000D03*
X80000000Y-63400000D03*
X95240000Y-73560000D03*
X80000000Y-60860000D03*
X95240000Y-76100000D03*
X80000000Y-58320000D03*
X95240000Y-78640000D03*
X80000000Y-55780000D03*
X95240000Y-81180000D03*
X80000000Y-53240000D03*
X95240000Y-83720000D03*
X80000000Y-50700000D03*
X95240000Y-86260000D03*
X80000000Y-48160000D03*
X95240000Y-88800000D03*
X80000000Y-45620000D03*
X95240000Y-91340000D03*
X80000000Y-43080000D03*
X95240000Y-93880000D03*
X80000000Y-40540000D03*
X95240000Y-96420000D03*
D11*
X80000000Y-38000000D03*
D10*
X68240000Y-38000000D03*
X53000000Y-96420000D03*
X68240000Y-40540000D03*
X53000000Y-93880000D03*
X68240000Y-43080000D03*
X53000000Y-91340000D03*
X68240000Y-45620000D03*
X53000000Y-88800000D03*
X68240000Y-48160000D03*
X53000000Y-86260000D03*
X68240000Y-50700000D03*
X53000000Y-83720000D03*
X68240000Y-53240000D03*
X53000000Y-81180000D03*
X68240000Y-55780000D03*
X53000000Y-78640000D03*
X68240000Y-58320000D03*
X53000000Y-76100000D03*
X68240000Y-60860000D03*
X53000000Y-73560000D03*
X68240000Y-63400000D03*
X53000000Y-71020000D03*
X68240000Y-65940000D03*
X53000000Y-68480000D03*
X68240000Y-68480000D03*
X53000000Y-65940000D03*
X68240000Y-71020000D03*
X53000000Y-63400000D03*
X68240000Y-73560000D03*
X53000000Y-60860000D03*
X68240000Y-76100000D03*
X53000000Y-58320000D03*
X68240000Y-78640000D03*
X53000000Y-55780000D03*
X68240000Y-81180000D03*
X53000000Y-53240000D03*
X68240000Y-83720000D03*
X53000000Y-50700000D03*
X68240000Y-86260000D03*
X53000000Y-48160000D03*
X68240000Y-88800000D03*
X53000000Y-45620000D03*
X68240000Y-91340000D03*
X53000000Y-43080000D03*
X68240000Y-93880000D03*
X53000000Y-40540000D03*
X68240000Y-96420000D03*
D11*
X53000000Y-38000000D03*
D10*
X111315500Y-63881000D03*
X103695500Y-86741000D03*
X111315500Y-66421000D03*
X103695500Y-84201000D03*
X111315500Y-68961000D03*
X103695500Y-81661000D03*
X111315500Y-71501000D03*
X103695500Y-79121000D03*
X111315500Y-74041000D03*
X103695500Y-76581000D03*
X111315500Y-76581000D03*
X103695500Y-74041000D03*
X111315500Y-79121000D03*
X103695500Y-71501000D03*
X111315500Y-81661000D03*
X103695500Y-68961000D03*
X111315500Y-84201000D03*
X103695500Y-66421000D03*
X111315500Y-86741000D03*
D11*
X103695500Y-63881000D03*
D12*
X106188500Y-58229500D03*
X111188500Y-58229500D03*
X90186500Y-31623000D03*
X95186500Y-31623000D03*
D13*
X95240000Y-38000000D02*
X92302000Y-38000000D01*
X92302000Y-38000000D02*
X91567000Y-38735000D01*
X91567000Y-38735000D02*
X91567000Y-95504000D01*
X92483000Y-96420000D02*
X95240000Y-96420000D01*
X91567000Y-95504000D02*
X92483000Y-96420000D01*
X67108630Y-38000000D02*
X65468500Y-39640130D01*
X68240000Y-38000000D02*
X67108630Y-38000000D01*
X65468500Y-39640130D02*
X65468500Y-95948500D01*
X65940000Y-96420000D02*
X68240000Y-96420000D01*
X65468500Y-95948500D02*
X65940000Y-96420000D01*
X68240000Y-38000000D02*
X68240000Y-31201000D01*
X68240000Y-31201000D02*
X69532500Y-29908500D01*
X93472000Y-29908500D02*
X95186500Y-31623000D01*
X69532500Y-29908500D02*
X93472000Y-29908500D01*
M02*
