G04 #@! TF.GenerationSoftware,KiCad,Pcbnew,(5.1.5-0-10_14)*
G04 #@! TF.CreationDate,2020-08-21T16:03:34+01:00*
G04 #@! TF.ProjectId,BusterTower,42757374-6572-4546-9f77-65722e6b6963,rev?*
G04 #@! TF.SameCoordinates,Original*
G04 #@! TF.FileFunction,Legend,Top*
G04 #@! TF.FilePolarity,Positive*
%FSLAX46Y46*%
G04 Gerber Fmt 4.6, Leading zero omitted, Abs format (unit mm)*
G04 Created by KiCad (PCBNEW (5.1.5-0-10_14)) date 2020-08-21 16:03:34*
%MOMM*%
%LPD*%
G04 APERTURE LIST*
%ADD10C,0.150000*%
%ADD11C,0.500000*%
%ADD12C,0.120000*%
G04 APERTURE END LIST*
D10*
X95854476Y-26679380D02*
X95521142Y-26203190D01*
X95283047Y-26679380D02*
X95283047Y-25679380D01*
X95663999Y-25679380D01*
X95759238Y-25727000D01*
X95806857Y-25774619D01*
X95854476Y-25869857D01*
X95854476Y-26012714D01*
X95806857Y-26107952D01*
X95759238Y-26155571D01*
X95663999Y-26203190D01*
X95283047Y-26203190D01*
X96663999Y-26631761D02*
X96568761Y-26679380D01*
X96378285Y-26679380D01*
X96283047Y-26631761D01*
X96235428Y-26536523D01*
X96235428Y-26155571D01*
X96283047Y-26060333D01*
X96378285Y-26012714D01*
X96568761Y-26012714D01*
X96663999Y-26060333D01*
X96711619Y-26155571D01*
X96711619Y-26250809D01*
X96235428Y-26346047D01*
X97140190Y-26298428D02*
X97902095Y-26298428D01*
X98806857Y-26631761D02*
X98711619Y-26679380D01*
X98521142Y-26679380D01*
X98425904Y-26631761D01*
X98378285Y-26584142D01*
X98330666Y-26488904D01*
X98330666Y-26203190D01*
X98378285Y-26107952D01*
X98425904Y-26060333D01*
X98521142Y-26012714D01*
X98711619Y-26012714D01*
X98806857Y-26060333D01*
X99235428Y-26679380D02*
X99235428Y-26012714D01*
X99235428Y-26203190D02*
X99283047Y-26107952D01*
X99330666Y-26060333D01*
X99425904Y-26012714D01*
X99521142Y-26012714D01*
X100235428Y-26631761D02*
X100140190Y-26679380D01*
X99949714Y-26679380D01*
X99854476Y-26631761D01*
X99806857Y-26536523D01*
X99806857Y-26155571D01*
X99854476Y-26060333D01*
X99949714Y-26012714D01*
X100140190Y-26012714D01*
X100235428Y-26060333D01*
X100283047Y-26155571D01*
X100283047Y-26250809D01*
X99806857Y-26346047D01*
X101140190Y-26679380D02*
X101140190Y-26155571D01*
X101092571Y-26060333D01*
X100997333Y-26012714D01*
X100806857Y-26012714D01*
X100711619Y-26060333D01*
X101140190Y-26631761D02*
X101044952Y-26679380D01*
X100806857Y-26679380D01*
X100711619Y-26631761D01*
X100664000Y-26536523D01*
X100664000Y-26441285D01*
X100711619Y-26346047D01*
X100806857Y-26298428D01*
X101044952Y-26298428D01*
X101140190Y-26250809D01*
X101473523Y-26012714D02*
X101854476Y-26012714D01*
X101616380Y-25679380D02*
X101616380Y-26536523D01*
X101664000Y-26631761D01*
X101759238Y-26679380D01*
X101854476Y-26679380D01*
X102568761Y-26631761D02*
X102473523Y-26679380D01*
X102283047Y-26679380D01*
X102187809Y-26631761D01*
X102140190Y-26536523D01*
X102140190Y-26155571D01*
X102187809Y-26060333D01*
X102283047Y-26012714D01*
X102473523Y-26012714D01*
X102568761Y-26060333D01*
X102616380Y-26155571D01*
X102616380Y-26250809D01*
X102140190Y-26346047D01*
X103473523Y-26679380D02*
X103473523Y-25679380D01*
X103473523Y-26631761D02*
X103378285Y-26679380D01*
X103187809Y-26679380D01*
X103092571Y-26631761D01*
X103044952Y-26584142D01*
X102997333Y-26488904D01*
X102997333Y-26203190D01*
X103044952Y-26107952D01*
X103092571Y-26060333D01*
X103187809Y-26012714D01*
X103378285Y-26012714D01*
X103473523Y-26060333D01*
X104711619Y-26679380D02*
X104711619Y-25679380D01*
X104711619Y-26060333D02*
X104806857Y-26012714D01*
X104997333Y-26012714D01*
X105092571Y-26060333D01*
X105140190Y-26107952D01*
X105187809Y-26203190D01*
X105187809Y-26488904D01*
X105140190Y-26584142D01*
X105092571Y-26631761D01*
X104997333Y-26679380D01*
X104806857Y-26679380D01*
X104711619Y-26631761D01*
X105521142Y-26012714D02*
X105759238Y-26679380D01*
X105997333Y-26012714D02*
X105759238Y-26679380D01*
X105663999Y-26917476D01*
X105616380Y-26965095D01*
X105521142Y-27012714D01*
X107711619Y-26584142D02*
X107663999Y-26631761D01*
X107521142Y-26679380D01*
X107425904Y-26679380D01*
X107283047Y-26631761D01*
X107187809Y-26536523D01*
X107140190Y-26441285D01*
X107092571Y-26250809D01*
X107092571Y-26107952D01*
X107140190Y-25917476D01*
X107187809Y-25822238D01*
X107283047Y-25727000D01*
X107425904Y-25679380D01*
X107521142Y-25679380D01*
X107663999Y-25727000D01*
X107711619Y-25774619D01*
X108140190Y-26679380D02*
X108140190Y-25679380D01*
X108568761Y-26679380D02*
X108568761Y-26155571D01*
X108521142Y-26060333D01*
X108425904Y-26012714D01*
X108283047Y-26012714D01*
X108187809Y-26060333D01*
X108140190Y-26107952D01*
X109044952Y-26679380D02*
X109044952Y-26012714D01*
X109044952Y-26203190D02*
X109092571Y-26107952D01*
X109140190Y-26060333D01*
X109235428Y-26012714D01*
X109330666Y-26012714D01*
X109663999Y-26679380D02*
X109663999Y-26012714D01*
X109663999Y-25679380D02*
X109616380Y-25727000D01*
X109663999Y-25774619D01*
X109711619Y-25727000D01*
X109663999Y-25679380D01*
X109663999Y-25774619D01*
X110092571Y-26631761D02*
X110187809Y-26679380D01*
X110378285Y-26679380D01*
X110473523Y-26631761D01*
X110521142Y-26536523D01*
X110521142Y-26488904D01*
X110473523Y-26393666D01*
X110378285Y-26346047D01*
X110235428Y-26346047D01*
X110140190Y-26298428D01*
X110092571Y-26203190D01*
X110092571Y-26155571D01*
X110140190Y-26060333D01*
X110235428Y-26012714D01*
X110378285Y-26012714D01*
X110473523Y-26060333D01*
X110902095Y-26631761D02*
X110997333Y-26679380D01*
X111187809Y-26679380D01*
X111283047Y-26631761D01*
X111330666Y-26536523D01*
X111330666Y-26488904D01*
X111283047Y-26393666D01*
X111187809Y-26346047D01*
X111044952Y-26346047D01*
X110949714Y-26298428D01*
X110902095Y-26203190D01*
X110902095Y-26155571D01*
X110949714Y-26060333D01*
X111044952Y-26012714D01*
X111187809Y-26012714D01*
X111283047Y-26060333D01*
X111663999Y-26012714D02*
X111902095Y-26679380D01*
X112140190Y-26012714D02*
X111902095Y-26679380D01*
X111806857Y-26917476D01*
X111759238Y-26965095D01*
X111663999Y-27012714D01*
X113140190Y-25679380D02*
X113473523Y-26679380D01*
X113806857Y-25679380D01*
X114663999Y-26679380D02*
X114092571Y-26679380D01*
X114378285Y-26679380D02*
X114378285Y-25679380D01*
X114283047Y-25822238D01*
X114187809Y-25917476D01*
X114092571Y-25965095D01*
X115092571Y-26584142D02*
X115140190Y-26631761D01*
X115092571Y-26679380D01*
X115044952Y-26631761D01*
X115092571Y-26584142D01*
X115092571Y-26679380D01*
X115759238Y-25679380D02*
X115854476Y-25679380D01*
X115949714Y-25727000D01*
X115997333Y-25774619D01*
X116044952Y-25869857D01*
X116092571Y-26060333D01*
X116092571Y-26298428D01*
X116044952Y-26488904D01*
X115997333Y-26584142D01*
X115949714Y-26631761D01*
X115854476Y-26679380D01*
X115759238Y-26679380D01*
X115663999Y-26631761D01*
X115616380Y-26584142D01*
X115568761Y-26488904D01*
X115521142Y-26298428D01*
X115521142Y-26060333D01*
X115568761Y-25869857D01*
X115616380Y-25774619D01*
X115663999Y-25727000D01*
X115759238Y-25679380D01*
X98425904Y-28979380D02*
X98997333Y-28979380D01*
X98711619Y-29979380D02*
X98711619Y-28979380D01*
X99330666Y-29979380D02*
X99330666Y-28979380D01*
X99759238Y-29979380D02*
X99759238Y-29455571D01*
X99711619Y-29360333D01*
X99616380Y-29312714D01*
X99473523Y-29312714D01*
X99378285Y-29360333D01*
X99330666Y-29407952D01*
X100664000Y-29979380D02*
X100664000Y-29455571D01*
X100616380Y-29360333D01*
X100521142Y-29312714D01*
X100330666Y-29312714D01*
X100235428Y-29360333D01*
X100664000Y-29931761D02*
X100568761Y-29979380D01*
X100330666Y-29979380D01*
X100235428Y-29931761D01*
X100187809Y-29836523D01*
X100187809Y-29741285D01*
X100235428Y-29646047D01*
X100330666Y-29598428D01*
X100568761Y-29598428D01*
X100664000Y-29550809D01*
X101140190Y-29312714D02*
X101140190Y-29979380D01*
X101140190Y-29407952D02*
X101187809Y-29360333D01*
X101283047Y-29312714D01*
X101425904Y-29312714D01*
X101521142Y-29360333D01*
X101568761Y-29455571D01*
X101568761Y-29979380D01*
X102044952Y-29979380D02*
X102044952Y-28979380D01*
X102140190Y-29598428D02*
X102425904Y-29979380D01*
X102425904Y-29312714D02*
X102044952Y-29693666D01*
X102806857Y-29931761D02*
X102902095Y-29979380D01*
X103092571Y-29979380D01*
X103187809Y-29931761D01*
X103235428Y-29836523D01*
X103235428Y-29788904D01*
X103187809Y-29693666D01*
X103092571Y-29646047D01*
X102949714Y-29646047D01*
X102854476Y-29598428D01*
X102806857Y-29503190D01*
X102806857Y-29455571D01*
X102854476Y-29360333D01*
X102949714Y-29312714D01*
X103092571Y-29312714D01*
X103187809Y-29360333D01*
X104283047Y-29312714D02*
X104664000Y-29312714D01*
X104425904Y-28979380D02*
X104425904Y-29836523D01*
X104473523Y-29931761D01*
X104568761Y-29979380D01*
X104664000Y-29979380D01*
X105140190Y-29979380D02*
X105044952Y-29931761D01*
X104997333Y-29884142D01*
X104949714Y-29788904D01*
X104949714Y-29503190D01*
X104997333Y-29407952D01*
X105044952Y-29360333D01*
X105140190Y-29312714D01*
X105283047Y-29312714D01*
X105378285Y-29360333D01*
X105425904Y-29407952D01*
X105473523Y-29503190D01*
X105473523Y-29788904D01*
X105425904Y-29884142D01*
X105378285Y-29931761D01*
X105283047Y-29979380D01*
X105140190Y-29979380D01*
X106664000Y-29979380D02*
X106664000Y-28979380D01*
X107044952Y-28979380D01*
X107140190Y-29027000D01*
X107187809Y-29074619D01*
X107235428Y-29169857D01*
X107235428Y-29312714D01*
X107187809Y-29407952D01*
X107140190Y-29455571D01*
X107044952Y-29503190D01*
X106664000Y-29503190D01*
X108044952Y-29931761D02*
X107949714Y-29979380D01*
X107759238Y-29979380D01*
X107664000Y-29931761D01*
X107616380Y-29836523D01*
X107616380Y-29455571D01*
X107664000Y-29360333D01*
X107759238Y-29312714D01*
X107949714Y-29312714D01*
X108044952Y-29360333D01*
X108092571Y-29455571D01*
X108092571Y-29550809D01*
X107616380Y-29646047D01*
X108902095Y-29931761D02*
X108806857Y-29979380D01*
X108616380Y-29979380D01*
X108521142Y-29931761D01*
X108473523Y-29836523D01*
X108473523Y-29455571D01*
X108521142Y-29360333D01*
X108616380Y-29312714D01*
X108806857Y-29312714D01*
X108902095Y-29360333D01*
X108949714Y-29455571D01*
X108949714Y-29550809D01*
X108473523Y-29646047D01*
X109378285Y-29312714D02*
X109378285Y-30312714D01*
X109378285Y-29360333D02*
X109473523Y-29312714D01*
X109664000Y-29312714D01*
X109759238Y-29360333D01*
X109806857Y-29407952D01*
X109854476Y-29503190D01*
X109854476Y-29788904D01*
X109806857Y-29884142D01*
X109759238Y-29931761D01*
X109664000Y-29979380D01*
X109473523Y-29979380D01*
X109378285Y-29931761D01*
X110425904Y-29979380D02*
X110330666Y-29931761D01*
X110283047Y-29884142D01*
X110235428Y-29788904D01*
X110235428Y-29503190D01*
X110283047Y-29407952D01*
X110330666Y-29360333D01*
X110425904Y-29312714D01*
X110568761Y-29312714D01*
X110664000Y-29360333D01*
X110711619Y-29407952D01*
X110759238Y-29503190D01*
X110759238Y-29788904D01*
X110711619Y-29884142D01*
X110664000Y-29931761D01*
X110568761Y-29979380D01*
X110425904Y-29979380D01*
X111187809Y-28979380D02*
X111187809Y-29788904D01*
X111235428Y-29884142D01*
X111283047Y-29931761D01*
X111378285Y-29979380D01*
X111568761Y-29979380D01*
X111664000Y-29931761D01*
X111711619Y-29884142D01*
X111759238Y-29788904D01*
X111759238Y-28979380D01*
X112235428Y-29979380D02*
X112235428Y-28979380D01*
X112806857Y-29979380D02*
X112378285Y-29407952D01*
X112806857Y-28979380D02*
X112235428Y-29550809D01*
X103044952Y-31629380D02*
X103044952Y-31105571D01*
X102997333Y-31010333D01*
X102902095Y-30962714D01*
X102711619Y-30962714D01*
X102616380Y-31010333D01*
X103044952Y-31581761D02*
X102949714Y-31629380D01*
X102711619Y-31629380D01*
X102616380Y-31581761D01*
X102568761Y-31486523D01*
X102568761Y-31391285D01*
X102616380Y-31296047D01*
X102711619Y-31248428D01*
X102949714Y-31248428D01*
X103044952Y-31200809D01*
X103521142Y-30962714D02*
X103521142Y-31629380D01*
X103521142Y-31057952D02*
X103568761Y-31010333D01*
X103664000Y-30962714D01*
X103806857Y-30962714D01*
X103902095Y-31010333D01*
X103949714Y-31105571D01*
X103949714Y-31629380D01*
X104854476Y-31629380D02*
X104854476Y-30629380D01*
X104854476Y-31581761D02*
X104759238Y-31629380D01*
X104568761Y-31629380D01*
X104473523Y-31581761D01*
X104425904Y-31534142D01*
X104378285Y-31438904D01*
X104378285Y-31153190D01*
X104425904Y-31057952D01*
X104473523Y-31010333D01*
X104568761Y-30962714D01*
X104759238Y-30962714D01*
X104854476Y-31010333D01*
X106568761Y-31629380D02*
X106092571Y-31629380D01*
X106092571Y-30629380D01*
X106902095Y-31629380D02*
X106902095Y-30629380D01*
X107235428Y-30629380D02*
X107568761Y-31629380D01*
X107902095Y-30629380D01*
X108187809Y-30724619D02*
X108235428Y-30677000D01*
X108330666Y-30629380D01*
X108568761Y-30629380D01*
X108664000Y-30677000D01*
X108711619Y-30724619D01*
X108759238Y-30819857D01*
X108759238Y-30915095D01*
X108711619Y-31057952D01*
X108140190Y-31629380D01*
X108759238Y-31629380D01*
D11*
X52159214Y-28805214D02*
X52587785Y-28948071D01*
X52730642Y-29090928D01*
X52873500Y-29376642D01*
X52873500Y-29805214D01*
X52730642Y-30090928D01*
X52587785Y-30233785D01*
X52302071Y-30376642D01*
X51159214Y-30376642D01*
X51159214Y-27376642D01*
X52159214Y-27376642D01*
X52444928Y-27519500D01*
X52587785Y-27662357D01*
X52730642Y-27948071D01*
X52730642Y-28233785D01*
X52587785Y-28519500D01*
X52444928Y-28662357D01*
X52159214Y-28805214D01*
X51159214Y-28805214D01*
X54159214Y-27376642D02*
X54159214Y-29805214D01*
X54302071Y-30090928D01*
X54444928Y-30233785D01*
X54730642Y-30376642D01*
X55302071Y-30376642D01*
X55587785Y-30233785D01*
X55730642Y-30090928D01*
X55873500Y-29805214D01*
X55873500Y-27376642D01*
X57159214Y-30233785D02*
X57587785Y-30376642D01*
X58302071Y-30376642D01*
X58587785Y-30233785D01*
X58730642Y-30090928D01*
X58873500Y-29805214D01*
X58873500Y-29519500D01*
X58730642Y-29233785D01*
X58587785Y-29090928D01*
X58302071Y-28948071D01*
X57730642Y-28805214D01*
X57444928Y-28662357D01*
X57302071Y-28519500D01*
X57159214Y-28233785D01*
X57159214Y-27948071D01*
X57302071Y-27662357D01*
X57444928Y-27519500D01*
X57730642Y-27376642D01*
X58444928Y-27376642D01*
X58873500Y-27519500D01*
X59730642Y-27376642D02*
X61444928Y-27376642D01*
X60587785Y-30376642D02*
X60587785Y-27376642D01*
X62444928Y-28805214D02*
X63444928Y-28805214D01*
X63873500Y-30376642D02*
X62444928Y-30376642D01*
X62444928Y-27376642D01*
X63873500Y-27376642D01*
X66873500Y-30376642D02*
X65873500Y-28948071D01*
X65159214Y-30376642D02*
X65159214Y-27376642D01*
X66302071Y-27376642D01*
X66587785Y-27519500D01*
X66730642Y-27662357D01*
X66873500Y-27948071D01*
X66873500Y-28376642D01*
X66730642Y-28662357D01*
X66587785Y-28805214D01*
X66302071Y-28948071D01*
X65159214Y-28948071D01*
X70016357Y-27376642D02*
X71730642Y-27376642D01*
X70873500Y-30376642D02*
X70873500Y-27376642D01*
X73302071Y-27376642D02*
X73873500Y-27376642D01*
X74159214Y-27519500D01*
X74444928Y-27805214D01*
X74587785Y-28376642D01*
X74587785Y-29376642D01*
X74444928Y-29948071D01*
X74159214Y-30233785D01*
X73873500Y-30376642D01*
X73302071Y-30376642D01*
X73016357Y-30233785D01*
X72730642Y-29948071D01*
X72587785Y-29376642D01*
X72587785Y-28376642D01*
X72730642Y-27805214D01*
X73016357Y-27519500D01*
X73302071Y-27376642D01*
X75587785Y-27376642D02*
X76302071Y-30376642D01*
X76873500Y-28233785D01*
X77444928Y-30376642D01*
X78159214Y-27376642D01*
X79302071Y-28805214D02*
X80302071Y-28805214D01*
X80730642Y-30376642D02*
X79302071Y-30376642D01*
X79302071Y-27376642D01*
X80730642Y-27376642D01*
X83730642Y-30376642D02*
X82730642Y-28948071D01*
X82016357Y-30376642D02*
X82016357Y-27376642D01*
X83159214Y-27376642D01*
X83444928Y-27519500D01*
X83587785Y-27662357D01*
X83730642Y-27948071D01*
X83730642Y-28376642D01*
X83587785Y-28662357D01*
X83444928Y-28805214D01*
X83159214Y-28948071D01*
X82016357Y-28948071D01*
D12*
X96570000Y-36610000D02*
X78670000Y-36610000D01*
X96570000Y-97810000D02*
X96570000Y-36610000D01*
X78670000Y-97810000D02*
X96570000Y-97810000D01*
X78670000Y-36610000D02*
X78670000Y-97810000D01*
X94080000Y-36670000D02*
X88620000Y-36670000D01*
X94080000Y-97750000D02*
X94080000Y-36670000D01*
X81160000Y-97750000D02*
X94080000Y-97750000D01*
X81160000Y-36670000D02*
X81160000Y-97750000D01*
X86620000Y-36670000D02*
X81160000Y-36670000D01*
X88620000Y-36670000D02*
G75*
G02X86620000Y-36670000I-1000000J0D01*
G01*
X69570000Y-36610000D02*
X51670000Y-36610000D01*
X69570000Y-97810000D02*
X69570000Y-36610000D01*
X51670000Y-97810000D02*
X69570000Y-97810000D01*
X51670000Y-36610000D02*
X51670000Y-97810000D01*
X67080000Y-36670000D02*
X61620000Y-36670000D01*
X67080000Y-97750000D02*
X67080000Y-36670000D01*
X54160000Y-97750000D02*
X67080000Y-97750000D01*
X54160000Y-36670000D02*
X54160000Y-97750000D01*
X59620000Y-36670000D02*
X54160000Y-36670000D01*
X61620000Y-36670000D02*
G75*
G02X59620000Y-36670000I-1000000J0D01*
G01*
X112645500Y-62491000D02*
X102365500Y-62491000D01*
X112645500Y-88131000D02*
X112645500Y-62491000D01*
X102365500Y-88131000D02*
X112645500Y-88131000D01*
X102365500Y-62491000D02*
X102365500Y-88131000D01*
X110155500Y-62551000D02*
X108505500Y-62551000D01*
X110155500Y-88071000D02*
X110155500Y-62551000D01*
X104855500Y-88071000D02*
X110155500Y-88071000D01*
X104855500Y-62551000D02*
X104855500Y-88071000D01*
X106505500Y-62551000D02*
X104855500Y-62551000D01*
X108505500Y-62551000D02*
G75*
G02X106505500Y-62551000I-1000000J0D01*
G01*
X103568500Y-59599500D02*
X103568500Y-56859500D01*
X113808500Y-59599500D02*
X113808500Y-56859500D01*
X113808500Y-56859500D02*
X103568500Y-56859500D01*
X113808500Y-59599500D02*
X103568500Y-59599500D01*
X87566500Y-32993000D02*
X87566500Y-30253000D01*
X97806500Y-32993000D02*
X97806500Y-30253000D01*
X97806500Y-30253000D02*
X87566500Y-30253000D01*
X97806500Y-32993000D02*
X87566500Y-32993000D01*
D10*
X86858095Y-35122380D02*
X86858095Y-35931904D01*
X86905714Y-36027142D01*
X86953333Y-36074761D01*
X87048571Y-36122380D01*
X87239047Y-36122380D01*
X87334285Y-36074761D01*
X87381904Y-36027142D01*
X87429523Y-35931904D01*
X87429523Y-35122380D01*
X87858095Y-35217619D02*
X87905714Y-35170000D01*
X88000952Y-35122380D01*
X88239047Y-35122380D01*
X88334285Y-35170000D01*
X88381904Y-35217619D01*
X88429523Y-35312857D01*
X88429523Y-35408095D01*
X88381904Y-35550952D01*
X87810476Y-36122380D01*
X88429523Y-36122380D01*
X59858095Y-35122380D02*
X59858095Y-35931904D01*
X59905714Y-36027142D01*
X59953333Y-36074761D01*
X60048571Y-36122380D01*
X60239047Y-36122380D01*
X60334285Y-36074761D01*
X60381904Y-36027142D01*
X60429523Y-35931904D01*
X60429523Y-35122380D01*
X61429523Y-36122380D02*
X60858095Y-36122380D01*
X61143809Y-36122380D02*
X61143809Y-35122380D01*
X61048571Y-35265238D01*
X60953333Y-35360476D01*
X60858095Y-35408095D01*
X106743595Y-61003380D02*
X106743595Y-61812904D01*
X106791214Y-61908142D01*
X106838833Y-61955761D01*
X106934071Y-62003380D01*
X107124547Y-62003380D01*
X107219785Y-61955761D01*
X107267404Y-61908142D01*
X107315023Y-61812904D01*
X107315023Y-61003380D01*
X107695976Y-61003380D02*
X108315023Y-61003380D01*
X107981690Y-61384333D01*
X108124547Y-61384333D01*
X108219785Y-61431952D01*
X108267404Y-61479571D01*
X108315023Y-61574809D01*
X108315023Y-61812904D01*
X108267404Y-61908142D01*
X108219785Y-61955761D01*
X108124547Y-62003380D01*
X107838833Y-62003380D01*
X107743595Y-61955761D01*
X107695976Y-61908142D01*
X104100333Y-54840142D02*
X104052714Y-54887761D01*
X103909857Y-54935380D01*
X103814619Y-54935380D01*
X103671761Y-54887761D01*
X103576523Y-54792523D01*
X103528904Y-54697285D01*
X103481285Y-54506809D01*
X103481285Y-54363952D01*
X103528904Y-54173476D01*
X103576523Y-54078238D01*
X103671761Y-53983000D01*
X103814619Y-53935380D01*
X103909857Y-53935380D01*
X104052714Y-53983000D01*
X104100333Y-54030619D01*
X104481285Y-54030619D02*
X104528904Y-53983000D01*
X104624142Y-53935380D01*
X104862238Y-53935380D01*
X104957476Y-53983000D01*
X105005095Y-54030619D01*
X105052714Y-54125857D01*
X105052714Y-54221095D01*
X105005095Y-54363952D01*
X104433666Y-54935380D01*
X105052714Y-54935380D01*
X88034833Y-29821142D02*
X87987214Y-29868761D01*
X87844357Y-29916380D01*
X87749119Y-29916380D01*
X87606261Y-29868761D01*
X87511023Y-29773523D01*
X87463404Y-29678285D01*
X87415785Y-29487809D01*
X87415785Y-29344952D01*
X87463404Y-29154476D01*
X87511023Y-29059238D01*
X87606261Y-28964000D01*
X87749119Y-28916380D01*
X87844357Y-28916380D01*
X87987214Y-28964000D01*
X88034833Y-29011619D01*
X88987214Y-29916380D02*
X88415785Y-29916380D01*
X88701500Y-29916380D02*
X88701500Y-28916380D01*
X88606261Y-29059238D01*
X88511023Y-29154476D01*
X88415785Y-29202095D01*
M02*
